# xmcd
#
# Track frame offsets: 
#        150
#        22280
#        44794
#        68991
#        86858
#        108543
#        128809
#        147748
#
# Disc length: 2263 seconds
#
# Revision: 0
# Processed by: cddbd v1.5.2PL0 Copyright (c) Steve Scherf et al.
# Submitted via: ExactAudioCopy v0.99pb5
#
DISCID=8408d508
DTITLE=Richard "Popcorn" Wylie - Extrasensory Perception
DYEAR=1974
DGENRE=Rhythmic Soul
TTITLE0=Singing About You and Me
TTITLE1=Georgia's After Hours
TTITLE2=How Did I Lose You
TTITLE3=Lost Time
TTITLE4=ESP
TTITLE5=I Can Take the World on with You
TTITLE6=Both Ends Against the Middle
TTITLE7=Trust in Me
EXTD=
EXTT0=
EXTT1=
EXTT2=
EXTT3=
EXTT4=
EXTT5=
EXTT6=
EXTT7=
PLAYORDER=
